<?xml version="1.0" encoding="UTF-8" standalone="no"?>
<svg
   xmlns:dc="http://purl.org/dc/elements/1.1/"
   xmlns:cc="http://creativecommons.org/ns#"
   xmlns:rdf="http://www.w3.org/1999/02/22-rdf-syntax-ns#"
   xmlns:svg="http://www.w3.org/2000/svg"
   xmlns="http://www.w3.org/2000/svg"
   xmlns:sodipodi="http://sodipodi.sourceforge.net/DTD/sodipodi-0.dtd"
   xmlns:inkscape="http://www.inkscape.org/namespaces/inkscape"
   width="192"
   height="192"
   viewBox="0 0 192 192"
   id="svg2"
   version="1.1"
   inkscape:version="0.48.5 r10040"
   sodipodi:docname="ic_launcher.svg">
  <metadata
     id="metadata14">
    <rdf:RDF>
      <cc:Work
         rdf:about="">
        <dc:format>image/svg+xml</dc:format>
        <dc:type
           rdf:resource="http://purl.org/dc/dcmitype/StillImage" />
      </cc:Work>
    </rdf:RDF>
  </metadata>
  <defs
     id="defs12">
    <filter
       inkscape:collect="always"
       id="filter3801">
      <feGaussianBlur
         inkscape:collect="always"
         stdDeviation="1.76"
         id="feGaussianBlur3803" />
    </filter>
    <filter
       inkscape:collect="always"
       id="filter3851">
      <feGaussianBlur
         inkscape:collect="always"
         stdDeviation="0.8025082"
         id="feGaussianBlur3853" />
    </filter>
    <filter
       inkscape:collect="always"
       id="filter3865">
      <feGaussianBlur
         inkscape:collect="always"
         stdDeviation="0.8025082"
         id="feGaussianBlur3867" />
    </filter>
  </defs>
  <sodipodi:namedview
     pagecolor="#ffffff"
     bordercolor="#666666"
     borderopacity="1"
     objecttolerance="10"
     gridtolerance="10"
     guidetolerance="10"
     inkscape:pageopacity="0"
     inkscape:pageshadow="2"
     inkscape:window-width="1920"
     inkscape:window-height="1161"
     id="namedview10"
     showgrid="false"
     inkscape:zoom="2.4583333"
     inkscape:cx="78.75335"
     inkscape:cy="109.50043"
     inkscape:window-x="1920"
     inkscape:window-y="0"
     inkscape:window-maximized="1"
     inkscape:current-layer="layer3" />
  <g
     inkscape:groupmode="layer"
     id="layer2"
     inkscape:label="Shadow"
     style="display:inline">
    <path
       inkscape:connector-curvature="0"
       style="opacity:0.41000001;fill:#000000;fill-opacity:1;stroke:none;filter:url(#filter3801)"
       d="M 96,10 C 47.398942,10 8,49.398942 8,98 c 0,48.60106 39.398942,88 88,88 48.60106,0 88,-39.39894 88,-88 0,-48.601058 -39.39894,-88 -88,-88 z m 0,33 c 4.56499,0 8.25,3.685001 8.25,8.25 l 0,30.25 44,27.5 0,11 -44,-13.75 0,30.25 11,8.25 0,8.25 -19.25,-5.5 -19.25,5.5 0,-8.25 11,-8.25 0,-30.25 -44,13.75 0,-11 44,-27.5 0,-30.25 C 87.75,46.685 91.435002,43 96,43 z"
       id="path2991-9" />
  </g>
  <g
     inkscape:groupmode="layer"
     id="layer1"
     inkscape:label="Icon"
     style="display:inline">
    <path
       inkscape:connector-curvature="0"
       style="fill:#2196f3;fill-opacity:1;stroke:none"
       d="M 96,8 C 47.398942,8 8,47.398942 8,96 c 0,48.60106 39.398942,88 88,88 48.60106,0 88,-39.39894 88,-88 C 184,47.398942 144.60106,8 96,8 z m 0,33 c 4.56499,0 8.25,3.685001 8.25,8.25 l 0,30.25 44,27.5 0,11 -44,-13.75 0,30.25 11,8.25 0,8.25 -19.25,-5.5 -19.25,5.5 0,-8.25 11,-8.25 0,-30.25 -44,13.75 0,-11 44,-27.5 0,-30.25 C 87.75,44.685 91.435002,41 96,41 z"
       id="path2991" />
  </g>
  <g
     inkscape:groupmode="layer"
     id="layer3"
     inkscape:label="edges"
     style="display:inline">
    <path
       style="opacity:0.1;fill:#000000;fill-opacity:1;stroke:none;display:inline;filter:url(#filter3851)"
       d="m 96,39 c -4.564998,0 -8.25,3.685 -8.25,8.25 l 0,2 C 87.75,44.685 91.435002,41 96,41 c 4.56499,0 8.25,3.685001 8.25,8.25 l 0,-2 C 104.25,42.685001 100.56499,39 96,39 z m -8.25,38.5 -44,27.5 0,2 44,-27.5 0,-2 z m 16.5,0 0,2 44,27.5 0,-2 -44,-27.5 z M 8,95 c -0.00369,0.331949 0,0.667178 0,1 0,48.60106 39.398942,88 88,88 48.60106,0 88,-39.39894 88,-88 0,-0.332822 0.004,-0.668051 0,-1 -0.53451,48.14166 -39.73176,87 -88,87 C 47.731764,182 8.5345086,143.14166 8,95 z m 79.75,37.5 -11,8.25 0,2 11,-8.25 0,-2 z m 16.5,0 0,2 11,8.25 0,-2 -11,-8.25 z"
       id="path2991-7"
       inkscape:connector-curvature="0" />
    <path
       style="opacity:0.4;fill:#ffffff;fill-opacity:1;stroke:none;display:inline;filter:url(#filter3865)"
       d="M 96,8 C 47.398942,8 8,47.398942 8,96 8,96.332822 7.99631,96.668051 8,97 8.5345086,48.85834 47.731764,10 96,10 c 48.26824,0 87.46549,38.85834 88,87 0.004,-0.331949 0,-0.667178 0,-1 C 184,47.398942 144.60106,8 96,8 z m -8.25,96.25 -44,13.75 0,2 44,-13.75 0,-2 z m 16.5,0 0,2 44,13.75 0,-2 -44,-13.75 z M 96,145.5 76.75,151 l 0,2 19.25,-5.5 19.25,5.5 0,-2 L 96,145.5 z"
       id="path2991-0"
       inkscape:connector-curvature="0" />
  </g>
</svg>
